<mxfile host="65bd71144e">
    <diagram id="tSSmnuXAkAECprOrDNFG" name="データ永続化">
        <mxGraphModel dx="893" dy="534" grid="1" gridSize="10" guides="1" tooltips="1" connect="1" arrows="1" fold="1" page="1" pageScale="1" pageWidth="827" pageHeight="1169" math="0" shadow="0">
            <root>
                <mxCell id="0"/>
                <mxCell id="1" parent="0"/>
                <mxCell id="2" value="cd データ永続化" style="shape=umlFrame;whiteSpace=wrap;html=1;width=120;height=30;boundedLbl=1;verticalAlign=middle;align=left;spacingLeft=5;swimlaneFillColor=default;" parent="1" vertex="1">
                    <mxGeometry x="20" y="90" width="740" height="490" as="geometry"/>
                </mxCell>
                <mxCell id="7" value="Usecase" style="html=1;fontStyle=4" parent="1" vertex="1">
                    <mxGeometry x="200" y="190" width="110" height="50" as="geometry"/>
                </mxCell>
                <mxCell id="8" value="DataStore" style="html=1;fontStyle=4" parent="1" vertex="1">
                    <mxGeometry x="350" y="410" width="110" height="50" as="geometry"/>
                </mxCell>
                <mxCell id="9" value="Repository" style="html=1;fontStyle=4" parent="1" vertex="1">
                    <mxGeometry x="413" y="190" width="110" height="50" as="geometry"/>
                </mxCell>
                <mxCell id="10" value="Entity" style="html=1;fontStyle=4" parent="1" vertex="1">
                    <mxGeometry x="470" y="260" width="110" height="50" as="geometry"/>
                </mxCell>
                <mxCell id="11" value="ValueObject" style="html=1;fontStyle=4" parent="1" vertex="1">
                    <mxGeometry x="630" y="300" width="110" height="50" as="geometry"/>
                </mxCell>
                <mxCell id="22" value="App" style="html=1;fontStyle=4" parent="1" vertex="1">
                    <mxGeometry x="50" y="130" width="110" height="50" as="geometry"/>
                </mxCell>
                <mxCell id="24" value="1. 設定値保存(保存パス)" style="html=1;verticalAlign=bottom;labelBackgroundColor=none;endArrow=open;endFill=0;" parent="1" source="22" target="7" edge="1">
                    <mxGeometry x="-0.4276" y="-22" width="160" relative="1" as="geometry">
                        <mxPoint x="280" y="320" as="sourcePoint"/>
                        <mxPoint x="440" y="320" as="targetPoint"/>
                        <Array as="points">
                            <mxPoint x="100" y="220"/>
                        </Array>
                        <mxPoint x="-11" y="-2" as="offset"/>
                    </mxGeometry>
                </mxCell>
                <mxCell id="25" value="1-1. Entity取得" style="html=1;verticalAlign=bottom;labelBackgroundColor=none;endArrow=open;endFill=0;" parent="1" source="7" target="9" edge="1">
                    <mxGeometry width="160" relative="1" as="geometry">
                        <mxPoint x="280" y="320" as="sourcePoint"/>
                        <mxPoint x="440" y="320" as="targetPoint"/>
                    </mxGeometry>
                </mxCell>
                <mxCell id="26" value="1-2. データパケット取得" style="html=1;verticalAlign=bottom;labelBackgroundColor=none;endArrow=open;endFill=0;" parent="1" source="7" target="10" edge="1">
                    <mxGeometry width="160" relative="1" as="geometry">
                        <mxPoint x="270" y="290" as="sourcePoint"/>
                        <mxPoint x="470" y="290" as="targetPoint"/>
                        <Array as="points">
                            <mxPoint x="330" y="285"/>
                        </Array>
                    </mxGeometry>
                </mxCell>
                <mxCell id="27" value="1-2-1. データパケット取得" style="html=1;verticalAlign=bottom;labelBackgroundColor=none;endArrow=open;endFill=0;" parent="1" source="10" target="11" edge="1">
                    <mxGeometry width="160" relative="1" as="geometry">
                        <mxPoint x="350" y="235" as="sourcePoint"/>
                        <mxPoint x="550" y="235" as="targetPoint"/>
                        <Array as="points">
                            <mxPoint x="520" y="330"/>
                        </Array>
                    </mxGeometry>
                </mxCell>
                <mxCell id="28" value="1-3. 保存(保存パス, データパケット)" style="html=1;verticalAlign=bottom;labelBackgroundColor=none;endArrow=open;endFill=0;" parent="1" source="7" target="8" edge="1">
                    <mxGeometry width="160" relative="1" as="geometry">
                        <mxPoint x="340" y="245" as="sourcePoint"/>
                        <mxPoint x="540" y="245" as="targetPoint"/>
                        <Array as="points">
                            <mxPoint x="250" y="430"/>
                        </Array>
                    </mxGeometry>
                </mxCell>
                <mxCell id="29" value="EntityPacket" style="html=1;fontStyle=4;fillColor=#bac8d3;strokeColor=#23445d;" vertex="1" parent="1">
                    <mxGeometry x="340" y="320" width="110" height="50" as="geometry"/>
                </mxCell>
                <mxCell id="30" value="ValueObjectPacket" style="html=1;fontStyle=4;fillColor=#bac8d3;strokeColor=#23445d;" vertex="1" parent="1">
                    <mxGeometry x="510" y="380" width="110" height="50" as="geometry"/>
                </mxCell>
                <mxCell id="35" value="" style="endArrow=none;dashed=1;html=1;dashPattern=1 3;strokeWidth=2;" edge="1" parent="1" source="29">
                    <mxGeometry width="50" height="50" relative="1" as="geometry">
                        <mxPoint x="390" y="340" as="sourcePoint"/>
                        <mxPoint x="390" y="290" as="targetPoint"/>
                    </mxGeometry>
                </mxCell>
                <mxCell id="36" value="" style="endArrow=none;dashed=1;html=1;dashPattern=1 3;strokeWidth=2;" edge="1" parent="1" source="30">
                    <mxGeometry width="50" height="50" relative="1" as="geometry">
                        <mxPoint x="402.72727272727275" y="330" as="sourcePoint"/>
                        <mxPoint x="570" y="330" as="targetPoint"/>
                    </mxGeometry>
                </mxCell>
                <mxCell id="_D2UoFK3HfYSzMwOKRuQ-36" value="" style="endArrow=none;startArrow=diamondThin;endFill=0;startFill=1;html=1;verticalAlign=bottom;labelBackgroundColor=none;strokeWidth=1;startSize=8;endSize=8;" edge="1" parent="1" source="29" target="30">
                    <mxGeometry width="160" relative="1" as="geometry">
                        <mxPoint x="320" y="464.4117647058822" as="sourcePoint"/>
                        <mxPoint x="380" y="485.58823529411757" as="targetPoint"/>
                    </mxGeometry>
                </mxCell>
                <mxCell id="9kibXFM6RZq6Yi7U4mgJ-36" value="JsonSerializerで&lt;br&gt;データパケットのプロパティを&lt;br&gt;JSON化して、ファイルに格納" style="shape=note2;boundedLbl=1;whiteSpace=wrap;html=1;size=17;verticalAlign=top;align=center;" vertex="1" parent="1">
                    <mxGeometry x="435" y="490" width="260" height="70" as="geometry"/>
                </mxCell>
                <mxCell id="9kibXFM6RZq6Yi7U4mgJ-37" value="" style="endArrow=none;dashed=1;html=1;dashPattern=1 3;strokeWidth=2;" edge="1" parent="1" source="8" target="9kibXFM6RZq6Yi7U4mgJ-36">
                    <mxGeometry width="50" height="50" relative="1" as="geometry">
                        <mxPoint x="400" y="360" as="sourcePoint"/>
                        <mxPoint x="450" y="310" as="targetPoint"/>
                    </mxGeometry>
                </mxCell>
            </root>
        </mxGraphModel>
    </diagram>
    <diagram id="o52IZ32zdicpHdGbvZ0Q" name="データ読み込み">
        <mxGraphModel dx="893" dy="534" grid="1" gridSize="10" guides="1" tooltips="1" connect="1" arrows="1" fold="1" page="1" pageScale="1" pageWidth="827" pageHeight="1169" math="0" shadow="0">
            <root>
                <mxCell id="0"/>
                <mxCell id="1" parent="0"/>
                <mxCell id="2KClH39hQaHsoaeSfs-2-1" value="cd データ読み込み" style="shape=umlFrame;whiteSpace=wrap;html=1;width=120;height=30;boundedLbl=1;verticalAlign=middle;align=left;spacingLeft=5;swimlaneFillColor=default;" parent="1" vertex="1">
                    <mxGeometry x="20" y="90" width="710" height="460" as="geometry"/>
                </mxCell>
                <mxCell id="2KClH39hQaHsoaeSfs-2-2" value="Usecase" style="html=1;fontStyle=4" parent="1" vertex="1">
                    <mxGeometry x="200" y="190" width="110" height="50" as="geometry"/>
                </mxCell>
                <mxCell id="2KClH39hQaHsoaeSfs-2-3" value="DataStore" style="html=1;fontStyle=4" parent="1" vertex="1">
                    <mxGeometry x="340" y="335" width="110" height="50" as="geometry"/>
                </mxCell>
                <mxCell id="2KClH39hQaHsoaeSfs-2-4" value="Repository" style="html=1;fontStyle=4" parent="1" vertex="1">
                    <mxGeometry x="413" y="190" width="110" height="50" as="geometry"/>
                </mxCell>
                <mxCell id="2KClH39hQaHsoaeSfs-2-5" value="Entity" style="html=1;fontStyle=4" parent="1" vertex="1">
                    <mxGeometry x="450" y="260" width="110" height="50" as="geometry"/>
                </mxCell>
                <mxCell id="2KClH39hQaHsoaeSfs-2-6" value="ValueObject" style="html=1;fontStyle=4" parent="1" vertex="1">
                    <mxGeometry x="610" y="300" width="110" height="50" as="geometry"/>
                </mxCell>
                <mxCell id="2KClH39hQaHsoaeSfs-2-7" value="App" style="html=1;fontStyle=4" parent="1" vertex="1">
                    <mxGeometry x="50" y="130" width="110" height="50" as="geometry"/>
                </mxCell>
                <mxCell id="2KClH39hQaHsoaeSfs-2-8" value="1. 設定値読み込み(読み込みパス)" style="html=1;verticalAlign=bottom;labelBackgroundColor=none;endArrow=open;endFill=0;" parent="1" source="2KClH39hQaHsoaeSfs-2-7" target="2KClH39hQaHsoaeSfs-2-2" edge="1">
                    <mxGeometry x="-0.3655" y="-20" width="160" relative="1" as="geometry">
                        <mxPoint x="280" y="320" as="sourcePoint"/>
                        <mxPoint x="440" y="320" as="targetPoint"/>
                        <Array as="points">
                            <mxPoint x="100" y="220"/>
                        </Array>
                        <mxPoint as="offset"/>
                    </mxGeometry>
                </mxCell>
                <mxCell id="2KClH39hQaHsoaeSfs-2-9" value="1-3. Entity取得" style="html=1;verticalAlign=bottom;labelBackgroundColor=none;endArrow=open;endFill=0;" parent="1" source="2KClH39hQaHsoaeSfs-2-2" target="2KClH39hQaHsoaeSfs-2-4" edge="1">
                    <mxGeometry width="160" relative="1" as="geometry">
                        <mxPoint x="280" y="320" as="sourcePoint"/>
                        <mxPoint x="440" y="320" as="targetPoint"/>
                    </mxGeometry>
                </mxCell>
                <mxCell id="2KClH39hQaHsoaeSfs-2-10" value="1-4. 設定値展開(データパケット)" style="html=1;verticalAlign=bottom;labelBackgroundColor=none;endArrow=open;endFill=0;" parent="1" source="2KClH39hQaHsoaeSfs-2-2" target="2KClH39hQaHsoaeSfs-2-5" edge="1">
                    <mxGeometry width="160" relative="1" as="geometry">
                        <mxPoint x="270" y="290" as="sourcePoint"/>
                        <mxPoint x="470" y="290" as="targetPoint"/>
                        <Array as="points">
                            <mxPoint x="330" y="285"/>
                        </Array>
                    </mxGeometry>
                </mxCell>
                <mxCell id="2KClH39hQaHsoaeSfs-2-11" value="1-4-1. 設定値展開(データパケット)" style="html=1;verticalAlign=bottom;labelBackgroundColor=none;endArrow=open;endFill=0;" parent="1" source="2KClH39hQaHsoaeSfs-2-5" target="2KClH39hQaHsoaeSfs-2-6" edge="1">
                    <mxGeometry x="-0.6908" y="10" width="160" relative="1" as="geometry">
                        <mxPoint x="330" y="235" as="sourcePoint"/>
                        <mxPoint x="530" y="235" as="targetPoint"/>
                        <Array as="points">
                            <mxPoint x="500" y="330"/>
                        </Array>
                        <mxPoint x="-10" y="10" as="offset"/>
                    </mxGeometry>
                </mxCell>
                <mxCell id="2KClH39hQaHsoaeSfs-2-12" value="1-2. 読み込み(読み込みパス) : データパケット" style="html=1;verticalAlign=bottom;labelBackgroundColor=none;endArrow=open;endFill=0;" parent="1" source="2KClH39hQaHsoaeSfs-2-2" target="2KClH39hQaHsoaeSfs-2-3" edge="1">
                    <mxGeometry x="0.0935" y="-60" width="160" relative="1" as="geometry">
                        <mxPoint x="340" y="245" as="sourcePoint"/>
                        <mxPoint x="540" y="245" as="targetPoint"/>
                        <Array as="points">
                            <mxPoint x="240" y="360"/>
                        </Array>
                        <mxPoint x="-60" y="-60" as="offset"/>
                    </mxGeometry>
                </mxCell>
                <mxCell id="2KClH39hQaHsoaeSfs-2-13" value="1-5. Entity保存" style="html=1;verticalAlign=bottom;labelBackgroundColor=none;endArrow=open;endFill=0;" parent="1" source="2KClH39hQaHsoaeSfs-2-2" target="2KClH39hQaHsoaeSfs-2-4" edge="1">
                    <mxGeometry width="160" relative="1" as="geometry">
                        <mxPoint x="320" y="225" as="sourcePoint"/>
                        <mxPoint x="423" y="225" as="targetPoint"/>
                        <Array as="points">
                            <mxPoint x="350" y="140"/>
                        </Array>
                    </mxGeometry>
                </mxCell>
                <mxCell id="3DOomfkLUXINgfY91qN7-1" value="EntityPacket" style="html=1;fontStyle=4;fillColor=#bac8d3;strokeColor=#23445d;" vertex="1" parent="1">
                    <mxGeometry x="210" y="420" width="110" height="50" as="geometry"/>
                </mxCell>
                <mxCell id="3DOomfkLUXINgfY91qN7-2" value="ValueObjectPacket" style="html=1;fontStyle=4;fillColor=#bac8d3;strokeColor=#23445d;" vertex="1" parent="1">
                    <mxGeometry x="380" y="480" width="110" height="50" as="geometry"/>
                </mxCell>
                <mxCell id="3DOomfkLUXINgfY91qN7-5" value="" style="endArrow=none;startArrow=diamondThin;endFill=0;startFill=1;html=1;verticalAlign=bottom;labelBackgroundColor=none;strokeWidth=1;startSize=8;endSize=8;" edge="1" parent="1" source="3DOomfkLUXINgfY91qN7-1" target="3DOomfkLUXINgfY91qN7-2">
                    <mxGeometry width="160" relative="1" as="geometry">
                        <mxPoint x="330" y="420" as="sourcePoint"/>
                        <mxPoint x="490" y="420" as="targetPoint"/>
                    </mxGeometry>
                </mxCell>
                <mxCell id="07fE3DnMy3JGXMTH1MPd-1" value="" style="endArrow=none;dashed=1;html=1;dashPattern=1 3;strokeWidth=2;" edge="1" parent="1" source="3DOomfkLUXINgfY91qN7-1">
                    <mxGeometry width="50" height="50" relative="1" as="geometry">
                        <mxPoint x="566.6666666666667" y="380" as="sourcePoint"/>
                        <mxPoint x="290" y="360" as="targetPoint"/>
                    </mxGeometry>
                </mxCell>
                <mxCell id="EbTurTe8s-44OHotklF3-1" value="JsonSerializerで&lt;br&gt;ファイル内容のJSONを&lt;br&gt;データパケットのプロパティに詰める" style="shape=note2;boundedLbl=1;whiteSpace=wrap;html=1;size=17;verticalAlign=top;align=center;" vertex="1" parent="1">
                    <mxGeometry x="460" y="390" width="260" height="70" as="geometry"/>
                </mxCell>
                <mxCell id="EbTurTe8s-44OHotklF3-2" value="" style="endArrow=none;dashed=1;html=1;dashPattern=1 3;strokeWidth=2;" edge="1" parent="1" target="EbTurTe8s-44OHotklF3-1" source="2KClH39hQaHsoaeSfs-2-3">
                    <mxGeometry width="50" height="50" relative="1" as="geometry">
                        <mxPoint x="474.44444444444457" y="360" as="sourcePoint"/>
                        <mxPoint x="475" y="210" as="targetPoint"/>
                    </mxGeometry>
                </mxCell>
            </root>
        </mxGraphModel>
    </diagram>
</mxfile>